<svg width="500" height="200" viewBox="0 0 500 200" fill="none" xmlns="http://www.w3.org/2000/svg">
  <g transform="translate(20, 40)">
    <path d="M40 5 L70 22.5 V57.5 L40 75 L10 57.5 V22.5 L40 5Z" stroke="#E67E22" stroke-width="3" />
    <path d="M75 25 L105 42.5 V77.5 L75 95 L45 77.5 V42.5 L75 25Z" stroke="#D35400" stroke-width="3" />
    <path d="M75 65 L105 82.5 V117.5 L75 135 L45 117.5 V82.5 L75 65Z" stroke="#E67E22" stroke-width="3" />
    <path d="M40 85 L70 102.5 V137.5 L40 155 L10 137.5 V102.5 L40 85Z" stroke="#D35400" stroke-width="3" />
    <circle cx="58" cy="80" r="12" stroke="#F39C12" stroke-width="2" />
    <line x1="68" y1="90" x2="75" y2="97" stroke="#F39C12" stroke-width="2" />
  </g>
  <text x="140" y="100" font-family="Arial, sans-serif" font-weight="bold" font-size="52" fill="black">Tr<tspan fill="#F39C12">o</tspan>va<tspan fill="#F39C12">I</tspan>mpresa</text>
  <text x="385" y="130" font-family="Arial, sans-serif" font-weight="bold" font-size="24" fill="#F39C12">.com</text>
  <text x="140" y="160" font-family="Verdana, sans-serif" font-size="16" fill="#7F8C8D" letter-spacing="1">LA TUA GUIDA ALLE IMPRESE ITALIANE</text>
</svg>
